<svg xmlns="http://www.w3.org/2000/svg" width="1920" height="1080" viewBox="0 0 1920 1080">
  
  
  
  <defs>
    <pattern id="grid" width="48" height="48" patternUnits="userSpaceOnUse">
      <path d="M48 0H0V48" fill="none" stroke="rgba(141,146,153,0.05)" stroke-width="1"></path>
    </pattern>
    
    <g id="rotor">
      <circle cx="32" cy="32" r="30" fill="none" stroke="#3f4348" stroke-width="1" stroke-dasharray="7.85 3.93"></circle>
      <circle cx="32" cy="32" r="21" fill="none" stroke="#e9e5dc" stroke-width="8" stroke-dasharray="8.24 8.24" transform="rotate(-11.25 32 32)"></circle>
      <circle cx="32" cy="32" r="6" fill="#f0562e"></circle>
    </g>
    <g id="crosshair" stroke-width="1.3" fill="none">
      <path d="M-8.5 0H8.5M0 -8.5V8.5"></path>
    </g>
  </defs>
  <rect width="1920" height="1080" fill="#101012"></rect>
  <rect width="1920" height="1080" fill="url(#grid)"></rect>
  
  <g opacity="0.5">
    <g transform="translate(1400 -200) scale(11.25)">
      <circle cx="32" cy="32" r="30" fill="none" stroke="#26262a" stroke-width="1" stroke-dasharray="7.85 3.93"></circle>
      <circle cx="32" cy="32" r="21" fill="none" stroke="#26262a" stroke-width="8" stroke-dasharray="8.24 8.24" transform="rotate(-11.25 32 32)"></circle>
      <circle cx="32" cy="32" r="6" fill="#26262a"></circle>
    </g>
  </g>
  <use href="#crosshair" transform="translate(44 44)" stroke="#33343a"></use>
  <use href="#crosshair" transform="translate(1876 1036)" stroke="#33343a"></use>
  
  <g transform="translate(72 922)">
    <circle cx="43" cy="43" r="40.3" fill="none" stroke="#3f4348" stroke-width="1.6"></circle>
    <circle cx="43" cy="43" r="28.2" fill="none" stroke="#e9e5dc" stroke-width="10.75" stroke-dasharray="11.07 11.07" transform="rotate(-11.25 43 43)"></circle>
    <circle cx="43" cy="43" r="8" fill="#f0562e"></circle>
    <text x="108" y="40" font-family="Barlow Condensed" font-weight="800" font-size="40" letter-spacing="2.4" fill="#f4f1ea">DIE LICHTMASCHINE</text>
    <rect x="108" y="60" width="56" height="3" fill="#f0562e"></rect>
    <text x="176" y="69" font-family="IBM Plex Mono" font-weight="500" font-size="12" letter-spacing="2.9" fill="#8d9299">ES WERDE LICHT</text>
  </g>
  <text x="1876" y="1040" text-anchor="end" font-family="IBM Plex Mono" font-weight="500" font-size="11" fill="#3f4348">dielichtmaschine.de</text>
</svg>