<svg xmlns="http://www.w3.org/2000/svg" viewBox="0 0 48 48" fill="none" stroke="#8d9299" stroke-width="2"><rect x="2" y="16" width="44" height="16"></rect><path d="M6 16V32M10 16V32M14 16V32M18 16V32M22 16V32M26 16V32M30 16V32M34 16V32M38 16V32M42 16V32" stroke-width="0.8"></path><g fill="#8d9299" stroke="none"><rect x="4.6" y="16" width="2.8" height="9"></rect><rect x="8.6" y="16" width="2.8" height="9"></rect><rect x="16.6" y="16" width="2.8" height="9"></rect><rect x="20.6" y="16" width="2.8" height="9"></rect><rect x="24.6" y="16" width="2.8" height="9"></rect><rect x="32.6" y="16" width="2.8" height="9"></rect><rect x="36.6" y="16" width="2.8" height="9"></rect></g></svg>